<?xml version="1.0" encoding="UTF-8"?>
<svg version="1.1" viewBox="0 0 1600 1600" width="1280" height="1280" xmlns="http://www.w3.org/2000/svg">
<path transform="translate(796 234)" d="m0 0c3.54 0.01 7.08 0 10.6-0 2.78-0.01 5.56-0.01 8.34-0 1.92-0 3.85-0.01 5.77-0.01 19.6 0.05 19.6 0.05 27.6 2.14 2.56 0.21 5.1 0.37 7.66 0.5 0.74 0.04 1.49 0.08 2.26 0.12 2.38 0.13 4.76 0.26 7.14 0.38 26.7 1.41 26.7 1.41 36.3 3.47 4.17 0.83 8.39 1.39 12.6 1.97 3.08 0.56 3.08 0.56 6.1 1.57 3.01 1 5.77 1.47 8.92 1.87 6.14 0.88 12 2.38 17.9 4.04 5.47 1.48 11 2.58 16.6 3.69 4.31 0.86 8.35 1.98 12.5 3.39 4.82 1.29 9.66 2.5 14.5 3.7 5.44 1.39 10.4 2.99 15.5 5.3 2.34 0.82 4.7 1.61 7.06 2.38 9.83 3.22 19.6 6.61 29.2 10.5 3.58 1.43 7.2 2.76 10.8 4.1 5.04 1.87 9.99 3.83 14.9 6.07 2.31 1.04 4.65 1.99 7.01 2.93 0.84 0.34 1.68 0.67 2.54 1.02 1.61 0.63 3.23 1.24 4.85 1.84 6.02 2.27 11.6 5.13 17.2 8.24 4.06 2.22 8.17 4.09 12.4 5.9 2.6 1.23 5.18 2.52 7.75 3.81 1.05 0.53 1.05 0.53 2.12 1.07 8.49 4.29 16.8 8.86 24.9 13.8 2.69 1.59 5.42 2.98 8.24 4.32v2c0.84 0.23 1.69 0.45 2.56 0.69 3.26 1.24 5.6 2.78 8.36 4.87 4.13 2.86 8.64 5.1 13.1 7.44v2c0.78 0.19 1.57 0.37 2.37 0.56 5.13 2.03 9.19 5.21 13.6 8.44 1.58 1.11 3.16 2.21 4.75 3.31 13.8 9.69 27.5 19.4 40.4 30.3 3.23 2.7 6.54 5.27 9.87 7.84 4.59 3.56 9.02 7.23 13 11.5v2c0.52 0.21 1.04 0.43 1.58 0.65 3.41 1.91 6.17 4.41 9.11 6.98 0.61 0.53 1.23 1.07 1.86 1.62 1.24 1.07 2.48 2.15 3.71 3.23 1.55 1.35 3.1 2.69 4.66 4.02 0.81 0.7 1.62 1.4 2.45 2.13 0.71 0.61 1.42 1.22 2.15 1.85 1.48 1.52 1.48 1.52 1.48 3.52 0.58 0.25 1.15 0.5 1.75 0.75 2.58 1.43 4.31 3.03 6.25 5.25v2c0.96 0.4 0.96 0.4 1.94 0.81 2.06 1.19 2.06 1.19 3.06 4.19 1.31 0.7 2.65 1.37 4 2 1.75 1.5 1.75 1.5 3 3v2c0.56 0.21 1.11 0.41 1.69 0.63 2.56 1.52 4.01 3.36 5.84 5.68 1.61 1.85 3.33 3.32 5.22 4.88 5.12 4.35 9.08 9.56 13.2 14.8 2.49 2.98 5.03 5.91 7.6 8.82 8.11 9.18 15.7 18.8 23.1 28.5 1.29 1.68 2.59 3.36 3.89 5.03 13.9 18 13.9 18 16.4 24.6h2c0.83 1.49 0.83 1.49 1.69 3 3.35 5.84 6.76 11.4 11 16.6 2.68 3.35 4.16 6.19 5.31 10.4l2 1c3.85 5.3 6.87 11.3 10 17 0.62 1.11 1.23 2.21 1.87 3.36 0.65 1.17 1.29 2.34 1.94 3.52 0.61 1.09 1.21 2.18 1.83 3.3 1.36 2.82 1.36 2.82 1.36 5.82l2 1c3.01 4.73 5.84 9.68 7.25 15.1 0.25 0.94 0.49 1.89 0.75 2.87l2 1c0.88 2.29 1.53 4.61 2.22 6.97 0.59 2.22 0.59 2.22 2.78 3.03 2.99 5.06 5.24 10.4 7.19 16 0.92 2.32 2.03 4.46 3.18 6.67 2.65 5.17 4.54 10.5 6.45 16 1.92 5.5 4.11 10.9 6.4 16.2 2.51 5.91 4.77 11.8 6.74 17.9 0.97 2.99 1.98 5.96 3 8.94 1.64 4.82 3.21 9.58 4.23 14.6 0.47 3.71 0.47 3.71 2.81 5.69 0.57 2.25 1.06 4.53 1.5 6.81 0.94 4.96 0.94 4.96 2.53 9.73 1.57 3.99 1.86 8.17 2.41 12.4 0.39 2.96 0.39 2.96 1.56 5.05 1.4 2.82 1.61 5.52 2 8.64 0.61 4.87 1.44 9.64 2.42 14.4 1.06 5.37 2 10.8 2.92 16.2 0.23 1.35 0.47 2.69 0.71 4.04 0.35 1.97 0.69 3.95 1.02 5.92 0.21 1.17 0.41 2.33 0.62 3.52 0.32 3.4 0.22 6-0.69 9.28l-3 2c-3.74-3.05-7.14-6.05-10.2-9.75-7.47-8.74-16.4-15.7-25.8-22.2-0.94-0.71-0.94-0.71-1.9-1.43-4.03-3.04-8.28-5.26-12.8-7.45-2.27-1.12-2.27-1.12-4.77-2.68-3.21-1.85-6.56-3.12-10-4.46-2.12-0.83-4.21-1.7-6.3-2.6-2.72-1.18-5.44-2.29-8.19-3.38-0.78-0.33-1.57-0.66-2.38-1-3.16-1.2-6.36-2.1-9.62-3-1.05-0.33-2.1-0.66-3.19-1-4.35-1.14-8.69-1.8-13.1-2.44-2.67-0.56-2.67-0.56-5.67-2.56-3.04-0.67-6.15-0.86-9.25-1.12-1.44-0.13-1.44-0.13-2.9-0.26-18.1-1.39-36.3-1.19-54.4 0.19-1.45 0.11-1.45 0.11-2.93 0.21-5.5 0.5-9.58 1.66-14.6 3.98-2.44 0.41-2.44 0.41-4.56 0.5-4.12 0.35-6.74 1.62-10.4 3.5-1.99 0.53-3.99 1.03-6 1.5-4.4 1.04-8 2.37-12 4.5-1.45 0.5-2.91 0.98-4.38 1.44-4.46 1.44-8.48 3.38-12.6 5.56-1.4 0.69-2.79 1.38-4.19 2.06-4.19 2.1-8.09 4.44-11.9 7.13-2.87 1.81-2.87 1.81-5.87 1.81l-1 3c-2.7 1.83-2.7 1.83-6.13 3.81-5.75 3.4-10.8 6.94-15.4 11.9-1.44 1.33-1.44 1.33-3.44 1.33l-1 3c-0.81 0.31-1.61 0.62-2.44 0.94-2.68 0.78-2.68 0.78-3.48 2.92-1.28 2.53-2.7 3.69-4.89 5.45-3.85 3.24-6.39 6.53-9.19 10.7l-3 3c-0.81 1.11-1.59 2.25-2.34 3.4-0.42 0.64-0.85 1.29-1.28 1.95-0.44 0.67-0.87 1.34-1.32 2.03-2.85 4.38-5.79 8.53-9.06 12.6-1.24 2.68-1.24 2.68-2 5-0.99-0.33-1.98-0.66-3-1l-1 8c-0.99 0.33-1.98 0.66-3 1-0.7 2.01-0.7 2.01-1 4.38-0.68 4.31-0.68 4.31-2.47 6.03-2.21 2.29-2.44 4.57-3.09 7.65-1.23 5.73-1.23 5.73-3.44 7.94-0.6 3.5-0.96 6.99-1.34 10.5-0.66 3.48-1.65 5.6-3.66 8.48-2.98-0.34-4.61-0.64-6.84-2.71-0.55-0.69-1.1-1.39-1.66-2.1-2.6-3.19-5.27-5.64-8.5-8.19v-2c-0.72-0.23-1.44-0.45-2.19-0.69-3.4-1.59-5.17-3.63-7.81-6.31-2.47-2.23-4.98-4.4-7.5-6.56-0.98-0.85-0.98-0.85-1.97-1.71-4.99-4.31-9.85-8.37-15.5-11.7-1.72-1.23-3.43-2.48-5.13-3.75-6.32-4.64-12.8-9-19.7-12.8-0.72-0.47-1.44-0.94-2.18-1.43v-2c-0.87-0.25-1.73-0.49-2.63-0.75-2.9-1.08-5.03-2.27-7.54-4.05-3.22-2.11-6.65-3.84-10-5.64-2.78-1.56-2.78-1.56-5.64-3.5-3.53-2.32-7.16-4.2-11-6.06-0.71-0.35-1.41-0.7-2.14-1.06-5.74-2.82-11.5-5.55-17.5-7.9-2.57-1.04-5.06-2.18-7.57-3.35-6.23-2.85-12.6-5.29-19-7.69-0.76-0.29-1.51-0.58-2.29-0.87-4.13-1.58-8.3-3-12.5-4.38-2.07-0.7-4.11-1.46-6.15-2.25-3.86-1.47-7.78-2.65-11.7-3.81-2.8-0.83-5.56-1.77-8.32-2.69-5.46-1.64-11-2.99-16.5-4.32-2.48-0.68-2.48-0.68-3.48-1.68-3.12-0.45-6.24-0.82-9.37-1.16-5.24-0.63-5.24-0.63-7.48-1.83-2.75-1.29-5.18-1.5-8.2-1.79-1.76-0.18-1.76-0.18-3.56-0.36-1.22-0.12-2.44-0.24-3.7-0.36-2.42-0.23-4.83-0.47-7.24-0.72-1.07-0.1-2.14-0.2-3.24-0.31-3.21-0.47-3.21-0.47-6.39-1.46-4.13-1.09-7.91-1.45-12.2-1.64-1.15-0.06-1.15-0.06-2.33-0.13-2.42-0.13-4.84-0.25-7.27-0.36-1.65-0.09-3.31-0.18-4.96-0.27-4.03-0.21-8.07-0.41-12.1-0.61-0.05 19.4-0.08 38.8-0.1 58.2-0.02 9.01-0.03 18-0.05 27-0.02 7.86-0.03 15.7-0.04 23.6 0 4.16-0.01 8.31-0.02 12.5-0.02 3.92-0.02 7.83-0.02 11.8 0 1.44 0 2.87-0.01 4.3-0.05 10.4-0.04 19.1 6.24 27.7v2c0.9 0.15 0.9 0.15 1.81 0.29 2.67 0.87 3.45 1.84 5.19 4.02 6.73 8.02 13.9 15.8 22.8 21.3 2.39 1.51 4.56 3.21 6.77 4.99 3.01 2.37 6 4.4 9.38 6.22 2.68 1.54 5.2 3.29 7.75 5.03 20.8 14 43.8 22.2 67.9 28.5 2.1 0.56 4.17 1.15 6.25 1.77 2.57 0.71 4.85 1.16 7.49 1.36 3.86 0.37 7.53 1.08 11.3 2 6.11 1.31 12 1.66 18.2 1.67 0.85 0 1.69 0.01 2.56 0.01 2.72 0.01 5.44 0.01 8.15 0.01h2.81c17.7-0.04 34.8-0.1 51.8-5.6 7.04-2.25 7.04-2.25 10.8-0.59 1.29 2.18 1.29 2.18 2.19 4.88 1.07 3.12 1.95 5.34 3.81 8.12 0.7 2.36 1.34 4.74 1.94 7.13 1.27 4.97 2.67 9.86 4.35 14.7 1.1 3.34 1.99 6.73 2.88 10.1 0.59 2.15 1.22 4.29 1.87 6.41 2.07 6.77 3.43 13 3.69 20.1 0.11 2.49 0.11 2.49 1.22 4.38 1.95 3.99 2.33 8.42 3.05 12.8 0.17 1.04 0.35 2.09 0.53 3.16 1.77 11.2 2.58 22.4 3.24 33.8 0.16 2.39 0.16 2.39 0.73 4.39 1.27 5.3 0.96 11 1.12 16.4 0.03 0.68 0.05 1.37 0.07 2.08 0.28 9.11 0.38 18.2 0 27.3-0.04 0.9-0.07 1.81-0.11 2.74-0.04 0.82-0.09 1.65-0.13 2.49-0.06 1.07-0.06 1.07-0.12 2.15-0.33 1.87-0.33 1.87-2.33 4.87-0.17 2.63-0.17 2.63 0 5.63 0.09 5.6-0.27 11-0.94 16.6-0.09 0.74-0.17 1.48-0.26 2.25-0.66 5.29-0.66 5.29-1.8 7.56-0.47 2.81-0.9 5.62-1.31 8.44-1.07 6.95-2.27 13.9-3.69 20.8-0.15 0.76-0.31 1.53-0.47 2.31-1.07 5.06-2.67 9.68-4.53 14.5-0.36 1.41-0.68 2.82-0.94 4.25-0.97 4.7-2.49 9.14-4.05 13.7-1.27 3.86-2.3 7.76-3.3 11.7-0.69 2.3-1.58 4.25-2.71 6.37-2.83 6.43-5.44 13-7.97 19.5-2.34 6.02-5.08 11.8-8.03 17.5-0.71 1.44-1.42 2.87-2.13 4.31-1.11 2.23-2.25 4.31-3.56 6.44-1.24 2.13-1.87 3.85-2.31 6.25h-3c-0.09 1.21-0.09 1.21-0.19 2.44-1.33 5.82-3.77 11.2-8.81 14.6-1.22 2.18-1.22 2.18-2.19 4.63-0.34 0.81-0.69 1.63-1.04 2.47-0.26 0.63-0.51 1.25-0.77 1.9h-2c-0.27 1.09-0.54 2.19-0.81 3.31-1.13 3.49-1.6 4.42-4.19 6.69-1.18 2.1-1.18 2.1-2 4h-2c-0.27 0.97-0.54 1.94-0.81 2.94-0.4 1.01-0.79 2.02-1.19 3.06-0.99 0.33-1.98 0.66-3 1-0.25 0.83-0.5 1.65-0.75 2.5-1.74 4.88-4.71 8.74-8.25 12.5h-2l-2 5h-2v3c-1.29 1.38-2.63 2.71-4 4-1.44 1.71-2.85 3.44-4.25 5.19-3.51 4.32-7.1 8.54-10.8 12.7-1.3 1.45-2.57 2.94-3.83 4.44-0.6 0.73-1.21 1.45-1.83 2.2-0.53 0.65-1.06 1.3-1.61 1.97-1.64 1.53-1.64 1.53-3.72 2-0.63 0.17-1.27 0.35-1.92 0.53-0.68 1.33-1.35 2.66-2 4-2.43 2.22-2.43 2.22-5.31 4.5-0.95 0.75-1.89 1.51-2.87 2.28-0.93 0.73-1.86 1.47-2.82 2.22-3.57 2.83-6.76 5.68-9.88 9-2.22 2.1-4.5 3.45-7.12 5-0.52 0.54-1.03 1.07-1.56 1.63-1.44 1.37-1.44 1.37-3.57 1.87-0.92 0.25-0.92 0.25-1.87 0.5l-1 3c-2.43 1.82-2.43 1.82-5.44 3.69-0.99 0.62-1.98 1.24-2.99 1.88-2.57 1.43-2.57 1.43-4.57 1.43l-1 3c-1.98 1.44-3.92 2.73-6 4-1.3 0.82-2.61 1.65-3.91 2.47-1.38 0.87-2.77 1.73-4.15 2.59-0.7 0.44-1.39 0.87-2.11 1.32-1.34 0.83-2.68 1.67-4.02 2.5-1.57 0.97-3.13 1.95-4.68 2.93-2.13 1.19-2.13 1.19-4.13 1.19l-1 3c-1.6 1.06-1.6 1.06-3.63 2-0.72 0.34-1.45 0.68-2.2 1.04-1.84 0.81-3.69 1.61-5.55 2.4-3.74 1.61-7.36 3.39-11 5.23-3.42 1.73-6.86 3.43-10.3 5.12-2.38 1.2-2.38 1.2-4.79 2.73-2.55 1.49-4.99 2.5-7.78 3.48-0.96 0.34-1.91 0.68-2.9 1.03-2.57 0.87-5.14 1.71-7.73 2.53-2.52 0.82-4.3 1.56-6.56 3-5.53 3.1-12.3 3.77-18.6 3.44v2c-3.71 0.06-7.42 0.09-11.1 0.13-1.04 0.01-2.09 0.03-3.17 0.05-5.32 0.03-9.72-0.06-14.7-2.18-0.68-0.2-1.36-0.4-2.06-0.61-5.6-1.68-10.7-4.18-15.8-6.84-3.65-1.86-7.25-3.47-11.1-4.82-4.44-1.64-8.69-3.75-13-5.73-2.06-0.94-4.13-1.88-6.19-2.81-1.6-0.73-3.21-1.46-4.81-2.19v-2c-1.11-0.18-1.11-0.18-2.24-0.36-2.71-0.63-4.56-1.44-6.95-2.83-0.78-0.45-1.56-0.89-2.36-1.36-5.01-2.97-10-5.97-15-8.99-5.42-3.27-10.9-6.42-16.5-9.46v-2c-0.84-0.21-1.68-0.42-2.54-0.64-4.32-1.7-7.31-4.15-10.8-7.11-1.33-1.1-2.66-2.19-4-3.28-0.63-0.52-1.26-1.04-1.91-1.58-1.96-1.59-3.97-3.1-6.02-4.58-4.87-3.58-9.23-7.74-13.7-11.8-1.25-1.11-2.5-2.21-3.75-3.31-0.63-0.55-1.25-1.1-1.9-1.67-1.95-1.67-3.92-3.33-5.89-4.98-0.63-0.53-1.26-1.06-1.91-1.61-1.26-1.06-2.53-2.12-3.8-3.17-3.04-2.56-5.18-4.52-6.75-8.26-1.33-0.68-2.66-1.35-4-2l-1-3c-0.6-0.29-1.2-0.58-1.81-0.87-2.9-1.5-4.23-3.55-6.19-6.13-0.74-0.72-1.49-1.44-2.25-2.19-1.75-1.81-1.75-1.81-1.75-3.81h-2c-0.27-0.8-0.54-1.61-0.81-2.44-0.4-0.84-0.79-1.69-1.19-2.56-0.99-0.33-1.98-0.66-3-1-1.26-1.61-1.26-1.61-2.56-3.75-2.56-3.98-5.29-7.77-8.19-11.5-0.42-0.54-0.85-1.09-1.28-1.65-1.32-1.7-2.65-3.4-3.97-5.1-1.82-2.33-3.63-4.66-5.44-7-1.2-1.55-1.2-1.55-2.43-3.12-1.89-2.56-3.53-5.14-5.13-7.88-0.56-0.7-1.11-1.4-1.69-2.12-1.31-1.88-1.31-1.88-1.31-4.88h-2c-0.43-0.91-0.87-1.81-1.31-2.75-1.5-3.11-1.5-3.11-3.11-5.09-1.87-2.55-3.15-5.19-4.52-8.03-2.1-4.29-4.39-8.17-7.06-12.1l-2.13-5.04c-1.52-3.43-3.38-6.67-5.18-9.96-4.21-7.81-7.54-15.7-10.7-24-0.79-1.99-1.59-3.99-2.4-5.98-0.77-1.91-1.53-3.82-2.29-5.73-0.73-1.84-1.47-3.68-2.21-5.52-2.11-5.34-3.58-10.8-5.13-16.4-0.99-3.45-2.09-6.85-3.26-10.2-1.34-4.02-2.51-8.08-3.71-12.1-0.23-0.68-0.45-1.36-0.69-2.06-2.28-7.1-3.44-14.2-4.5-21.6-0.18-1.2-0.35-2.39-0.54-3.63-0.43-2.91-0.85-5.83-1.27-8.75h-1c-0.13-1.25-0.27-2.51-0.4-3.8l-0.54-4.95c-0.09-0.82-0.17-1.65-0.26-2.5-0.09-0.8-0.18-1.6-0.27-2.42-0.07-0.73-0.15-1.47-0.23-2.22-0.25-2.07-0.25-2.07-0.79-3.85-2.27-10-1.67-20.9-1.68-31.1 0-1.39-0.01-2.78-0.01-4.17-0.01-2.89-0.01-5.79-0.01-8.68 0-2.92 0-5.84-0.02-8.76-0.18-38.9-0.18-38.9 3.65-55.8 0.62-3 1.07-6.01 1.51-9.04 1.22-8.21 2.73-16.3 4.55-24.4 0.2-0.92 0.4-1.83 0.61-2.78 1.18-5.13 2.74-9.67 4.89-14.5 0.64-2.31 0.64-2.31 1-4.44 0.75-3.69 1.84-7.05 3.22-10.6 2.76-7.1 4.73-14.4 6.62-21.8 1.27-3.55 2.33-5.7 5.16-8.23 3.1-0.12 3.1-0.12 6.62 0.56 1.25 0.23 2.49 0.46 3.77 0.69 1.19 0.25 2.38 0.5 3.61 0.75 0.95 0.17 1.91 0.35 2.89 0.53 3.62 0.67 7.09 1.46 10.6 2.53 9.99 2.68 20.6 2.13 30.8 2.13 2.69 0 5.38 0.02 8.08 0.03 15 0.05 29.6-0.97 44.2-5.02 3.2-0.89 6.41-1.74 9.62-2.58 8.94-2.37 17.8-4.86 26.6-7.74 0.71-0.23 1.42-0.46 2.14-0.7 4.9-1.65 9.41-3.79 14-6.18 0.97-0.47 1.94-0.95 2.94-1.44 4.08-2.08 8.06-4.32 12.1-6.56 1.58-0.87 3.17-1.75 4.75-2.62 5.68-2.91 5.68-2.91 10.6-6.81 3.51-3.43 7.98-5.95 12.6-7.69 0.68-0.29 1.36-0.58 2.06-0.88l1-3c1.4-0.94 2.81-1.87 4.24-2.76 3.9-2.75 7.05-6.46 10.3-9.89 1.42-1.35 1.42-1.35 3.42-2.35 0.25-0.64 0.49-1.28 0.75-1.94 1.25-2.06 1.25-2.06 4.25-3 0.99-0.35 1.98-0.7 3-1.06 1.13-2.29 1.13-2.29 2-5 0.82-0.97 1.65-1.94 2.5-2.94 4.03-4.93 4.75-9.4 4.74-15.7 0-1.31 0-2.62 0.01-3.97-0.01-1.44-0.02-2.89-0.02-4.33v-4.58c0-4.14-0.01-8.28-0.03-12.4-0.01-4.33-0.01-8.65-0.01-13-0.01-8.19-0.03-16.4-0.05-24.6-0.02-9.32-0.03-18.6-0.04-28-0.02-19.2-0.06-38.4-0.1-57.6l-26 1-1 2c-2.22 0.4-2.22 0.4-5.14 0.6-1.05 0.08-2.1 0.16-3.19 0.24-1.11 0.07-2.22 0.15-3.36 0.22l-6.51 0.48c-0.97 0.06-1.94 0.13-2.93 0.19-2.99 0.28-5.91 0.75-8.87 1.27-0.97 0.14-1.94 0.29-2.94 0.44-3.11 0.51-3.11 0.51-6.22 1.54-4.85 1.29-9.62 1.72-14.6 2.14-4.71 0.47-8.01 1.59-12.2 3.88-2.21 0.59-2.21 0.59-4.38 0.94-4.75 0.86-9.43 1.92-14.1 3.06-0.71 0.17-1.41 0.33-2.14 0.5-4.09 0.98-4.09 0.98-7.36 3.5-1.95 0.49-3.89 0.98-5.85 1.43-3.2 0.85-6.13 2.23-9.15 3.57-2 0.67-4 1.33-6 2-1.66 0.71-3.31 1.43-4.96 2.15-2.44 1.02-4.92 1.9-7.42 2.79-6.43 2.31-12.6 5.01-18.7 8.12-2.57 1.31-5.11 2.41-7.82 3.38-7.96 2.89-15.3 7.17-22.7 11.3-2.44 1.23-2.44 1.23-4.7 1.71-0.86 0.26-0.86 0.26-1.74 0.52l-1 3c-1.57 0.99-1.57 0.99-3.56 1.88-2.86 1.33-5.54 2.74-8.19 4.43-3.5 2.24-7.05 4.39-10.6 6.5-1.01 0.61-2.03 1.21-3.08 1.83-2.54 1.36-2.54 1.36-4.54 1.36l-1 3c-1.67 1.28-1.67 1.28-3.75 2.5-0.72 0.43-1.44 0.86-2.18 1.31-1.64 0.94-3.29 1.88-4.95 2.82-2.39 1.35-2.39 1.35-4.12 4.37-1.65 1.02-3.32 2.02-5 3-5.97 4.08-11.4 8.84-16.8 13.6-3.91 3.4-7.96 6.42-12.2 9.4-2.49 2.3-4.74 4.68-6.91 7.28-1.04 1.22-1.04 1.22-2.09 2.47-0.64 0.78-1.28 1.56-1.94 2.36-2.37 2.17-3.91 2.56-7.06 2.89-3.35-3.68-4.3-7.76-5.56-12.4-0.42-1.5-0.84-3-1.26-4.49-0.19-0.71-0.39-1.42-0.6-2.14-0.6-2.1-0.6-2.1-1.73-4.71-0.85-2.22-0.85-2.22-0.85-6.22h-2c-0.27-0.72-0.54-1.43-0.81-2.17-2.87-7.28-6.34-13.6-10.6-20.1-1.57-2.72-1.57-2.72-1.57-5.72h-2c-1.4-1.79-1.4-1.79-2.94-4.19-0.5-0.77-1.01-1.55-1.53-2.35-1-1.62-1.99-3.25-2.95-4.89-7.11-11.6-17.2-24-28.6-31.6v-2c-0.58-0.26-1.16-0.52-1.76-0.78-2.41-1.31-4.16-2.8-6.18-4.66-2.86-2.63-5.72-4.59-9.06-6.56-1.68-1.21-3.35-2.44-5-3.69-12.6-9.23-26.2-16.7-40.9-22-5.73-2.07-5.73-2.07-8.41-3.88-3.63-1.94-7.22-2.34-11.3-2.91-2.42-0.53-2.42-0.53-4.42-2.53-1.96-0.52-1.96-0.52-4.21-0.78-1.25-0.18-1.25-0.18-2.53-0.36-0.87-0.12-1.74-0.24-2.64-0.36-1.71-0.23-3.43-0.47-5.14-0.72-0.77-0.1-1.53-0.2-2.31-0.31-2.32-0.5-4.07-1.4-6.17-2.47-11.9-1.61-24.2-1.1-36.2-1.12-0.77-0.01-1.54-0.01-2.33-0.01-17-1.12-17-1.12-32.4 3.13-3.61 0.72-7.21 1.3-10.8 1.86-3.66 0.59-6.04 1.06-9.16 3.14-1.93 0.53-3.87 1-5.81 1.44-4.45 1.06-8.16 2.36-12.2 4.56-2 0.68-4 1.35-6 2-5.27 1.97-10.2 3.96-15 7l-6 3c-1.52 0.85-3.05 1.7-4.56 2.56-2.49 1.41-4.76 2.56-7.44 3.57-0.66 0.28-1.32 0.57-2 0.87l-1 3c-2.12 1.5-4.22 2.85-6.44 4.19-6.23 3.87-11.9 8.12-17.6 12.8-1.83 1.46-3.67 2.92-5.5 4.38-2.28 1.81-4.44 3.56-6.5 5.62h-4c-3.58-7.16 0.49-22 1.37-29.7 0.12-1.03 0.23-2.06 0.35-3.12 0.75-6.29 1.97-12.3 3.58-18.4 0.97-3.88 1.56-7.78 2.14-11.7 0.99-6.31 2.37-12.2 4.39-18.3 1.9-6.11 3.42-12.3 4.97-18.5 1.25-4.88 2.61-9.59 4.45-14.3 1.38-3.58 2.5-7.24 3.69-10.9 2.03-6.19 4.23-12.2 7.06-18.1 1.27-2.98 2.32-5.98 3.31-9.06 1.58-4.82 3.52-9.47 5.51-14.1 1.42-3.37 2.78-6.75 4.07-10.2 1.94-5.03 4.12-9.7 6.86-14.3 1.29-2.37 2.34-4.81 3.39-7.29 1.67-3.9 3.49-7.73 5.3-11.6 0.38-0.83 0.76-1.65 1.15-2.5 2.17-4.59 4.54-8.74 7.41-12.9 0.99-1.92 1.95-3.86 2.87-5.81 2.27-4.62 4.77-8.82 7.7-13 1.44-2.16 2.69-4.35 3.93-6.64 2.06-3.79 4.34-7.34 6.76-10.9 2.16-3.21 4.27-6.46 6.36-9.71 0.38-0.58 0.75-1.15 1.13-1.74 2.56-3.98 4.93-8.02 7.25-12.1h2c0.25-0.89 0.49-1.77 0.75-2.69 1.33-3.52 2.84-5.44 5.25-8.31 1.57-2.39 3.11-4.79 4.63-7.21 0.45-0.59 0.9-1.18 1.37-1.79h2c1.07-2.65 2.09-5.28 3-8 1.31-1.35 2.64-2.69 4-4l1-2h2c0.27-0.73 0.54-1.46 0.82-2.21 2.55-6.02 6.41-11.3 11.2-15.8 1.22-1.45 2.44-2.89 3.64-4.36 3.63-4.39 7.33-8.61 11.4-12.6 3.25-3.54 6.36-6.99 8.94-11.1 2.35-3.35 5-5.66 8.11-8.28 2.45-2.09 4.7-4.35 6.95-6.66 0.87-0.85 1.73-1.69 2.62-2.56 2.38-2.32 2.38-2.32 4.07-4.75 0.43-0.56 0.86-1.12 1.31-1.69h2c0.21-0.72 0.41-1.44 0.62-2.19 1.76-3.58 4.3-5.42 7.38-7.81 3.95-3.27 7.7-6.51 10.9-10.5 2.89-3.53 6.24-6.13 9.91-8.82 2.24-1.75 4.16-3.65 6.15-5.68 3.47-3.15 7.01-6.22 10.7-9.12 2.37-1.86 2.37-1.86 4.54-4.13 21.9-21.8 21.9-21.8 28.8-21.8l1-3c2.24-1.66 4.59-3.05 6.97-4.5 2.32-1.41 2.32-1.41 3.03-4.5 1.94-0.76 3.89-1.51 5.87-2.18 3.71-1.42 6.93-3.52 9.63-6.44 1.5-1.38 1.5-1.38 4.62-2.38 0.95-0.33 1.9-0.66 2.88-1l1-3c2.29-1.68 2.29-1.68 5.19-3.44 1.5-0.92 1.5-0.92 3.03-1.86 0.92-0.56 1.83-1.12 2.78-1.7 1.03-0.7 2.06-1.4 3.12-2.12 3.19-2.08 6.47-3.86 9.83-5.63 2.06-1.14 2.06-1.14 3.45-2.71 1.66-1.6 3.11-2.45 5.18-3.44 0.69-0.34 1.37-0.67 2.08-1.01s1.42-0.68 2.15-1.03c5-2.39 9.6-4.91 14.2-8.06 1.59-0.92 3.19-1.82 4.81-2.69 0.94-0.51 1.89-1.01 2.86-1.54 1.65-0.87 1.65-0.87 3.33-1.77 0.66-0.35 1.32-0.71 2-1.07 16.8-8.98 16.8-8.98 25-12.9 0.59-0.29 1.18-0.57 1.79-0.87 8.86-4.28 17.8-8.31 26.9-11.9 3.83-1.28 3.83-1.28 6.27-4.26 2.01-0.72 4.06-1.35 6.12-1.94 4.82-1.37 9.29-3.05 13.9-5.06 2.59-1.01 5.2-1.97 7.81-2.94 4.55-1.68 9.08-3.4 13.6-5.25 3.9-1.58 7.82-2.8 11.9-3.96 3.32-1.02 6.57-2.21 9.83-3.41 4.63-1.68 9.13-3.11 14-3.98 2.06-0.43 2.06-0.43 4.28-1.42 3.17-1.23 6.29-1.87 9.63-2.54 4.49-0.9 8.72-2.03 13.1-3.5 2.58-0.69 5.16-1.36 7.75-2 0.71-0.18 1.42-0.35 2.15-0.53 5.34-1.31 10.7-2.47 16.1-3.47 2.58-0.48 5.17-0.96 7.75-1.44 0.69-0.13 1.39-0.25 2.1-0.39 4.26-0.79 8.48-1.67 12.7-2.61 18.2-3.91 36.2-6.3 54.9-7.33 2.48-0.15 2.48-0.15 4.5-0.72 3.39-0.83 6.85-0.9 10.3-1.06 0.86-0.05 1.73-0.09 2.61-0.13 12.3-0.53 24.6-0.47 36.8-0.45zm-47.7 2.13 4 1zm-361 136 1 2 1-2h-2zm-273 398 1 2zm-6 30 1 3zm671 8v11h1v-11h-1zm-314 117 1 3zm297 52 1 2 1-2h-2zm244 71v1h14v-1h-14zm-491 43 1 2zm-5 22 1 2zm459 7.01c-8.73 0.06-17.5 0.14-26.2 0.25-2.52 0.04-5.05 0.06-7.57 0.09-3.5 0.03-7.01 0.08-10.5 0.14-1.04 0.01-2.08 0.01-3.15 0.02-0.95 0.02-1.9 0.04-2.88 0.06-0.83 0.01-1.65 0.02-2.5 0.03-3.83 0.72-5.58 3.88-7.75 6.9-0.42 0.59-0.85 1.18-1.29 1.78-1.26 1.84-1.26 1.84-2.08 4.72-1.49 0.99-1.49 0.99-3 2-1.03 1.65-2.03 3.32-3 5-1.66 2.41-3.39 4.77-5.13 7.13-0.72 0.98-0.72 0.98-1.45 1.98-3.74 5.06-7.66 9.93-11.7 14.7-1.86 2.15-1.86 2.15-2.68 5.17-0.99 0.5-0.99 0.5-2 1-0.99 1.71-1.97 3.42-2.92 5.15-1.45 2.48-3.29 4.61-5.08 6.85v2c-0.99 0.33-1.98 0.66-3 1-0.7 1.32-1.37 2.65-2 4-0.99 0.5-0.99 0.5-2 1-0.45 0.93-0.91 1.86-1.38 2.81-1.62 3.18-3.09 4.74-5.62 7.19-4.19 4.52-4.19 4.52-6 10h-2c-0.58 1.05-1.16 2.1-1.75 3.19-1.81 3.2-3.95 5.94-6.25 8.81v2c-0.99 0.33-1.98 0.66-3 1-0.95 1.62-1.88 3.25-2.77 4.9-1.89 3.22-4.24 6.05-6.56 8.96-1.37 1.76-2.63 3.6-3.86 5.45-1.81 2.69-1.81 2.69-3.7 4.54-2.22 2.26-3.91 4.59-5.67 7.21-3.13 4.64-3.13 4.64-5.16 6.62-1.51 1.25-1.51 1.25-1.28 3.32h-2c-1.17 1.66-2.27 3.38-3.31 5.13-2.66 4.3-5.39 8.06-8.69 11.9-1.58 2.11-3.13 4.23-4.67 6.36-1.33 1.64-1.33 1.64-3.33 2.64-1.01 1.66-2.01 3.33-3 5-2.01 2.58-4.08 5.08-6.16 7.6-1.86 2.26-1.86 2.26-2.9 4.52-1.04 2.09-2.26 3.28-3.94 4.88-0.9 1.15-1.78 2.31-2.63 3.5-0.42 0.59-0.85 1.18-1.29 1.78-1.26 1.84-1.26 1.84-2.08 4.72-0.87 0.84-0.87 0.84-1.75 1.69-3.71 3.81-6.57 8.26-8.25 13.3-1.31 1.35-2.65 2.69-4 4l-1 2c-3.76-0.51-5.55-1.1-8-4-1.03-1.98-1.03-1.98-1.94-4.19-5.71-13.4-13-26.1-20.1-38.8-0.35-0.64-0.71-1.28-1.07-1.94-2.29-4.14-4.61-8.26-6.97-12.4-0.52-0.89-1.04-1.79-1.57-2.71-1.06-1.84-2.13-3.68-3.19-5.52-0.52-0.9-1.03-1.79-1.56-2.7-0.46-0.8-0.92-1.6-1.39-2.42-1.28-2.39-2.29-4.81-3.25-7.35h-2c-0.4-1.58-0.4-1.58-0.81-3.19-1.09-3.49-2.2-5.79-4.19-8.81-0.39-0.68-0.77-1.35-1.17-2.05-0.63-1.09-0.63-1.09-1.27-2.2-0.39-0.69-0.78-1.37-1.18-2.08-1.27-1.76-1.27-1.76-3.17-2.58-3.26-0.13-5.29 1.14-8.15 2.66-1.02 0.53-2.04 1.06-3.09 1.61-3.78 2.09-7.41 4.26-11 6.7-2.65 1.71-5.1 2.78-8 3.94l-1 2c-1.68 0.86-1.68 0.86-3.88 1.75-3.73 1.6-7.34 3.34-10.9 5.25-0.9 0.47-1.79 0.95-2.71 1.44-2.55 1.6-4.44 3.36-6.48 5.56 2.16 8.2 6.33 14.9 10.8 22 2.02 3.25 4.01 6.52 5.99 9.8 0.38 0.63 0.76 1.26 1.15 1.9 2.52 4.23 4.79 8.52 6.92 13 1.31 2.6 2.78 5.05 4.3 7.53 2.35 3.83 4.14 7.66 5.88 11.8 2.24 4.39 4.63 8.6 7.56 12.6 1.7 2.3 3.07 4.56 4.32 7.13 4.76 9.7 9.58 19.4 15.8 28.3 1.99 3.04 3.53 6.27 5.11 9.55 1.58 3.21 3.33 6.32 5.09 9.43 1 1.82 1.92 3.68 2.82 5.55 1.06 2.62 1.06 2.62 3.31 3.5 0.76 1.71 1.51 3.43 2.21 5.16 1.04 2.42 2.43 4.59 3.79 6.84 0.35 0.91 0.7 1.82 1.06 2.75 0.72 2.41 0.72 2.41 2.94 3.25 0.67 2 1.33 4 2 6l2 1c0.96 2.07 0.96 2.07 1.94 4.69 2.64 7.67 2.64 7.67 8.06 13.3 4.75 0.52 7.16-0.24 11-3 1.93-2.12 3.61-4.39 5.31-6.69 3.73-4.93 7.52-9.41 12.1-13.6 1.86-2.09 2.56-4.17 3.56-6.75 2.06-1.12 2.06-1.12 4-2l1-3c0.99-0.33 1.98-0.66 3-1 0.68-1.33 1.34-2.66 2-4 1.77-1.71 1.77-1.71 3.81-3.37 3.49-2.96 6.33-6.04 9.19-9.63 4.03-4.87 8.21-9.14 13-13.2 2.65-2.4 4.87-5.08 7.18-7.8 2.41-2.66 5.1-4.9 7.89-7.14 2.06-1.87 2.06-1.87 3.77-4.68 2.37-3.51 5.02-6.24 8.07-9.16 3.95-3.82 7.7-7.64 11.1-12v-2c0.59-0.26 1.18-0.52 1.8-0.78 2.38-1.32 3.71-2.65 5.45-4.72 0.52-0.61 1.04-1.22 1.58-1.84 1.36-1.59 1.36-1.59 1.17-3.66 0.96-0.4 0.96-0.4 1.94-0.81 2.39-1.08 2.39-1.08 3.06-4.19 0.99-0.33 1.98-0.66 3-1 0.31-0.8 0.62-1.61 0.94-2.44 1.27-3.06 2.15-3.25 5.06-4.56l1-3c0.66-0.31 1.32-0.62 2-0.94 0.66-0.35 1.32-0.7 2-1.06 0.16-0.66 0.33-1.32 0.5-2 0.16-0.66 0.33-1.32 0.5-2 0.6-0.3 1.21-0.6 1.83-0.91 2.43-1.22 3.68-2.51 5.42-4.59 0.52-0.61 1.04-1.22 1.58-1.84 1.36-1.59 1.36-1.59 1.17-3.66 0.89-0.14 0.89-0.14 1.81-0.29 2.66-0.86 3.53-1.91 5.25-4.08 1.49-1.86 2.9-3.59 4.62-5.23 1.55-1.32 1.55-1.32 1.32-3.4 0.55-0.23 1.1-0.45 1.67-0.69 3.02-1.7 5.14-3.86 7.58-6.31 0.89-0.89 1.78-1.77 2.7-2.69 2.27-2.04 2.27-2.04 2.05-4.31 0.99-0.33 1.98-0.66 3-1 0.31-0.8 0.62-1.61 0.94-2.44 1.27-3.06 2.15-3.25 5.06-4.56l1-3c0.99-0.33 1.98-0.66 3-1 0.67-1.33 1.34-2.66 2-4 1.99-1.86 4.09-3.52 6.22-5.22 1.94-1.94 2.4-3.1 2.78-5.78l4-1c0.08-0.62 0.16-1.24 0.25-1.87 0.75-2.13 0.75-2.13 2.75-3.19 0.66-0.31 1.32-0.62 2-0.94l1-3c0.66-0.31 1.32-0.62 2-0.94 0.66-0.35 1.32-0.7 2-1.06 0.16-0.66 0.33-1.32 0.5-2 0.16-0.66 0.33-1.32 0.5-2 1.33-0.67 2.67-1.33 4-2 1.74-1.97 3.38-3.94 5-6 3.7-4.59 7.61-8.53 12.1-12.4 4.92-4.1 4.92-4.1 7.9-9.63 1.48-0.49 1.48-0.49 3-1 1.22-2.5 1.22-2.5 2-5h3c1.64-1.76 1.64-1.76 3.19-4.06 2.95-3.98 6.05-7.03 9.83-10.2 3.34-2.95 6.12-6.35 8.98-9.75 0.58-0.66 1.17-1.31 1.77-1.99 0.55-0.62 1.1-1.24 1.67-1.88 0.49-0.56 0.98-1.11 1.49-1.68 1.27-1.42 1.27-1.42 1.07-3.45 0.64-0.25 1.28-0.49 1.94-0.75 2.25-1.07 2.25-1.07 2.81-3.37 0.08-0.62 0.16-1.24 0.25-1.88l4-1c0.08-0.62 0.16-1.24 0.25-1.87 0.75-2.13 0.75-2.13 2.61-3.06 2.36-1.18 3.44-2.34 5.08-4.38 1.88-2.3 3.78-4.45 5.93-6.5 2.36-1.92 2.36-1.92 2.13-4.19 0.59-0.08 1.17-0.17 1.78-0.26 2.85-0.95 3.89-2.3 5.78-4.61 3.38-4.09 3.38-4.09 5.15-5.45 2.04-2.66 1.37-5.43 1.29-8.68-14.8-1.15-29.6-1.16-44.5-1.12h-3.9c-10.2 0.02-20.5 0.07-30.7 0.13zm-464 22v6h1v-6h-1zm-1 8 1 3zm-1 12 1 3zm0 63 1 2zm1 13 1 3zm2 14 1 2zm6 35 1 2z" fill="#F9FCFE"/>
<path transform="translate(806,2)" d="m0 0c5.9 3.32 7.84 7.33 9.98 13.6 0.26 0.74 0.52 1.49 0.79 2.25 2.82 8.46 4.46 17.1 6.04 25.8 0.3 1.6 0.6 3.21 0.91 4.82 2.06 11 2.06 11 2.74 15.6 0.58 3.09 1.53 5.9 2.54 8.88 1.12 4.44 2.13 8.9 3.14 13.4 0.48 2.13 0.98 4.25 1.47 6.38 0.31 1.36 0.62 2.73 0.93 4.09 0.28 1.23 0.56 2.46 0.85 3.73 0.57 3.23 0.62 6.16 0.61 9.43 0.45 0.85 0.91 1.69 1.38 2.56 2.06 4.38 2.5 8.54 3.09 13.3 0.51 2.99 1.4 5.32 2.53 8.12 1.15 5.59 2.03 11.2 1.94 16.9 0.06 3.19 0.83 5.06 2.2 7.9 1.61 4.15 2.27 8.56 3.11 12.9 0.64 3.23 0.64 3.23 1.8 5.87 1.09 2.8 1.36 5.25 1.57 8.24 0.12 1.47 0.12 1.47 0.23 2.96 0.05 0.74 0.1 1.47 0.15 2.23-3.66 2.44-5.46 2.24-9.82 2.23h-2c-1.39 0-2.78-0.01-4.17-0.02-2.13-0.02-4.27-0.02-6.4-0.02-10.5-0.04-10.5-0.04-11.6-1.19-1.61-0.07-3.23-0.08-4.84-0.06-0.98 0.01-1.96 0.01-2.97 0.02-2.08 0.03-4.16 0.05-6.24 0.08-1.48 0.01-1.48 0.01-2.98 0.02-0.9 0.01-1.81 0.03-2.74 0.04-2.23-0.1-2.23-0.1-4.23-1.1-0.99 0.33-1.98 0.66-3 1l-2-1-1 2c-2.83 0.03-5.67 0.05-8.5 0.06-0.79 0.01-1.58 0.02-2.4 0.03-3.89 0.01-7.61-0.11-11.5-0.69-3.37-0.37-4.58-0.5-7.39 1.16-3.25 1.44-3.25 1.44-5.5 0.88-2.11-1.73-3.38-3.06-4.75-5.44 0.07-3.28 0.07-3.28 0.69-6.94 0.19-1.2 0.38-2.41 0.57-3.65 0.74-3.41 0.74-3.41 1.74-5.9 1.28-3.21 1.79-6.35 2.38-9.76 1.03-5.87 2.27-11.6 3.68-17.4 1.49-6.09 2.64-12.2 3.45-18.4 0.57-3.4 1.54-6.61 2.49-9.93 0.79-3.82 1.5-7.64 2.22-11.5 0.68-3.06 1.61-5.63 2.78-8.52 0.36-1.85 0.67-3.7 0.94-5.56 0.82-5.28 2-10.4 3.35-15.5 0.66-2.72 1.18-5.41 1.65-8.17 0.9-5.26 2.2-10.4 3.53-15.6 1.16-4.56 2.14-9.13 3.03-13.8 5.68-28.7 5.68-28.7 15.6-35.6 5.07-1.43 5.07-1.43 7.88-0.81zm-28 60 1 2zm-1 4 1 2zm-8 36 1 2zm-5 22 1 2zm-11 51 1 2z" fill="#F9FCFE"/>
<path transform="translate(752,803)" d="m0 0h6v1h-6v-1z" fill="#000204"/>
<path transform="translate(227,780)" d="m0 0h6v1h-6v-1z" fill="#000204"/>
<path transform="translate(858,804)" d="m0 0h5v1h-5v-1z" fill="#000204"/>
<path transform="translate(1306,780)" d="m0 0h5v1h-5v-1z" fill="#000204"/>
<path transform="translate(290,780)" d="m0 0h5v1h-5v-1z" fill="#000204"/>
<path transform="translate(1379,780)" d="m0 0 4 1z" fill="#000204"/>
<path transform="translate(716,808)" d="m0 0c3 1 3 1 3 1z" fill="#000204"/>
<path transform="translate(241,779)" d="m0 0c3 1 3 1 3 1z" fill="#000204"/>
<path transform="translate(690,813)" d="m0 0 2 1z" fill="#000204"/>
<path transform="translate(1294,783)" d="m0 0 2 1z" fill="#000204"/>
<path transform="translate(296,781)" d="m0 0 2 1z" fill="#000204"/>
<path transform="translate(764,192)" d="m0 0 2 1z" fill="#000204"/>
</svg>
